<svg width="16" height="17" viewBox="0 0 16 17" fill="none" xmlns="http://www.w3.org/2000/svg">
<path d="M8 16.3281C3.64844 16.3281 0.03125 12.7109 0.03125 8.35938C0.03125 4 3.64062 0.390625 7.99219 0.390625C12.3516 0.390625 15.9688 4 15.9688 8.35938C15.9688 12.7109 12.3594 16.3281 8 16.3281ZM8 15C11.6875 15 14.6406 12.0469 14.6406 8.35938C14.6406 4.67188 11.6797 1.71875 7.99219 1.71875C4.30469 1.71875 1.36719 4.67188 1.36719 8.35938C1.36719 12.0469 4.3125 15 8 15ZM7.99219 12.8203C7.78125 12.8203 7.625 12.6719 7.625 12.4531V11.8906C6.57812 11.7891 5.70312 11.2109 5.48438 10.3125C5.46094 10.2344 5.44531 10.1562 5.44531 10.0703C5.44531 9.79688 5.63281 9.60938 5.89844 9.60938C6.13281 9.60938 6.28906 9.73438 6.38281 10C6.50781 10.5234 6.92188 10.9141 7.625 11.0156V8.70312L7.57031 8.6875C6.26562 8.38281 5.59375 7.78906 5.59375 6.79688C5.59375 5.73438 6.4375 4.99219 7.625 4.85938V4.32031C7.625 4.10156 7.78125 3.95312 7.99219 3.95312C8.20312 3.95312 8.35938 4.10156 8.35938 4.32031V4.85938C9.35938 4.97656 10.1641 5.55469 10.3672 6.39844C10.3828 6.48438 10.4062 6.5625 10.4062 6.64062C10.4062 6.91406 10.2109 7.10156 9.94531 7.10156C9.69531 7.10156 9.54688 6.95312 9.46875 6.71875C9.3125 6.19531 8.92188 5.85938 8.35938 5.75781V7.9375L8.46875 7.96094C9.82812 8.20312 10.5156 8.84375 10.5156 9.90625C10.5156 11.0859 9.57031 11.7891 8.35938 11.9062V12.4531C8.35938 12.6719 8.20312 12.8203 7.99219 12.8203ZM7.625 7.74219V5.75781C6.96094 5.875 6.55469 6.27344 6.55469 6.75C6.55469 7.21094 6.86719 7.52344 7.57031 7.72656L7.625 7.74219ZM8.35938 8.89062V11.0156C9.15625 10.9219 9.54688 10.5078 9.54688 9.96094C9.54688 9.46094 9.28906 9.14062 8.53125 8.92969L8.35938 8.89062Z" fill="white"/>
</svg>
