<svg width="14" height="18" viewBox="0 0 14 18" fill="none" xmlns="http://www.w3.org/2000/svg">
<path d="M0.429688 15.2891V3.4375C0.429688 1.8125 1.23438 0.984375 2.85156 0.984375H11.1484C12.7656 0.984375 13.5703 1.8125 13.5703 3.4375V15.2891C13.5703 16.9219 12.7656 17.7344 11.1484 17.7344H2.85156C1.23438 17.7344 0.429688 16.9219 0.429688 15.2891ZM1.6875 15.2656C1.6875 16.0469 2.10156 16.4766 2.91406 16.4766H11.0859C11.8984 16.4766 12.3125 16.0469 12.3125 15.2656V3.46094C12.3125 2.67969 11.8984 2.24219 11.0859 2.24219H2.91406C2.10156 2.24219 1.6875 2.67969 1.6875 3.46094V15.2656ZM9.04688 8.89844C8.07812 8.89844 7.30469 8.17188 7.30469 6.92188C7.30469 6.25781 7.52344 5.64844 7.96875 5.17188C8.38281 4.71875 9.03906 4.39062 9.54688 4.39062C9.76562 4.39062 9.88281 4.51562 9.88281 4.67969C9.88281 4.85156 9.78906 4.9375 9.5 5.00781C9.15625 5.08594 8.84375 5.21875 8.59375 5.44531C8.34375 5.67188 8.16406 5.9375 8.10156 6.21875H8.26562C8.50781 5.91406 8.84375 5.78125 9.26562 5.78125C10.0938 5.78125 10.6562 6.39062 10.6562 7.30469C10.6562 8.24219 9.99219 8.89844 9.04688 8.89844ZM5.08594 8.90625C4.125 8.90625 3.35156 8.17969 3.35156 6.92969C3.35156 6.26562 3.57031 5.65625 4.00781 5.17969C4.44531 4.71094 5.07812 4.39844 5.58594 4.39844C5.80469 4.39844 5.92188 4.52344 5.92188 4.6875C5.92188 4.85938 5.83594 4.94531 5.54688 5.01562C5.20312 5.08594 4.90625 5.22656 4.66406 5.4375C4.39062 5.66406 4.21094 5.9375 4.14844 6.22656H4.30469C4.54688 5.92188 4.89062 5.78906 5.30469 5.78906C6.13281 5.78906 6.69531 6.39844 6.69531 7.3125C6.69531 8.25 6.03906 8.90625 5.08594 8.90625ZM4.03906 11.5391C3.75781 11.5391 3.54688 11.3203 3.54688 11.0469C3.54688 10.7812 3.75781 10.5781 4.03906 10.5781H9.96875C10.25 10.5781 10.4531 10.7812 10.4531 11.0469C10.4531 11.3203 10.25 11.5391 9.96875 11.5391H4.03906ZM4.03906 14.2578C3.75781 14.2578 3.54688 14.0547 3.54688 13.7891C3.54688 13.5156 3.75781 13.2969 4.03906 13.2969H6.84375C7.125 13.2969 7.32812 13.5156 7.32812 13.7891C7.32812 14.0547 7.125 14.2578 6.84375 14.2578H4.03906Z" fill="#161B27"/>
</svg>
