<svg width="40" height="40" viewBox="0 0 40 40" fill="none" xmlns="http://www.w3.org/2000/svg">
<rect width="40" height="40" rx="20" fill="#D3AB61"/>
<path d="M20 28.3281C18.8984 28.3281 17.8438 28.0938 16.8828 27.6719C17.6328 26.7891 18.0781 25.6562 18.0781 24.4375C18.0781 24.0391 18.0312 23.6328 17.9375 23.2578C18.5547 23.1094 19.2422 23.0156 19.9922 23.0156C22.3516 23.0156 24.1641 23.8906 24.9297 24.8047C26 23.6406 26.6406 22.0781 26.6406 20.3594C26.6406 16.6719 23.6719 13.7188 19.9922 13.7188C16.6172 13.7188 13.8672 16.1875 13.4375 19.4297C13.0234 19.3828 12.4688 19.4141 12.0859 19.4844C12.5234 15.5234 15.9219 12.3906 19.9922 12.3906C24.3438 12.3906 27.9688 16 27.9688 20.3594C27.9688 24.7109 24.3516 28.3281 20 28.3281ZM19.9922 21.6875C18.4922 21.6719 17.3203 20.4141 17.3125 18.7422C17.2969 17.1641 18.4922 15.8594 19.9922 15.8594C21.4844 15.8594 22.6719 17.1641 22.6719 18.7422C22.6719 20.4219 21.4922 21.7031 19.9922 21.6875ZM13.0391 28.4141C10.8672 28.4141 9.07031 26.6328 9.07031 24.4453C9.07031 22.2734 10.8672 20.4766 13.0391 20.4766C15.2188 20.4766 17.0078 22.2656 17.0078 24.4453C17.0078 26.6172 15.1875 28.4141 13.0391 28.4141ZM12.5625 26.5859C12.7344 26.5859 12.8906 26.5156 12.9766 26.3984L15.2422 23.25C15.3125 23.1484 15.3516 23.0391 15.3516 22.9531C15.3516 22.6797 15.125 22.4688 14.8594 22.4688C14.6797 22.4688 14.5391 22.5547 14.4453 22.6875L12.5469 25.3281L11.5859 24.2891C11.5 24.2031 11.375 24.125 11.2109 24.125C10.9375 24.125 10.7188 24.3359 10.7188 24.6172C10.7188 24.7266 10.7578 24.8672 10.8516 24.9688L12.1719 26.4219C12.2734 26.5312 12.4375 26.5859 12.5625 26.5859Z" fill="white"/>
</svg>
