<svg width="19" height="17" viewBox="0 0 19 17" fill="none" xmlns="http://www.w3.org/2000/svg">
<path d="M11 16.3281C9.89844 16.3281 8.84375 16.0938 7.88281 15.6719C8.63281 14.7891 9.07812 13.6562 9.07812 12.4375C9.07812 12.0391 9.03125 11.6328 8.9375 11.2578C9.55469 11.1094 10.2422 11.0156 10.9922 11.0156C13.3516 11.0156 15.1641 11.8906 15.9297 12.8047C17 11.6406 17.6406 10.0781 17.6406 8.35938C17.6406 4.67188 14.6719 1.71875 10.9922 1.71875C7.61719 1.71875 4.86719 4.1875 4.4375 7.42969C4.02344 7.38281 3.46875 7.41406 3.08594 7.48438C3.52344 3.52344 6.92188 0.390625 10.9922 0.390625C15.3438 0.390625 18.9688 4 18.9688 8.35938C18.9688 12.7109 15.3516 16.3281 11 16.3281ZM10.9922 9.6875C9.49219 9.67188 8.32031 8.41406 8.3125 6.74219C8.29688 5.16406 9.49219 3.85938 10.9922 3.85938C12.4844 3.85938 13.6719 5.16406 13.6719 6.74219C13.6719 8.42188 12.4922 9.70312 10.9922 9.6875ZM4.03906 16.4141C1.86719 16.4141 0.0703125 14.6328 0.0703125 12.4453C0.0703125 10.2734 1.86719 8.47656 4.03906 8.47656C6.21875 8.47656 8.00781 10.2656 8.00781 12.4453C8.00781 14.6172 6.1875 16.4141 4.03906 16.4141ZM3.5625 14.5859C3.73438 14.5859 3.89062 14.5156 3.97656 14.3984L6.24219 11.25C6.3125 11.1484 6.35156 11.0391 6.35156 10.9531C6.35156 10.6797 6.125 10.4688 5.85938 10.4688C5.67969 10.4688 5.53906 10.5547 5.44531 10.6875L3.54688 13.3281L2.58594 12.2891C2.5 12.2031 2.375 12.125 2.21094 12.125C1.9375 12.125 1.71875 12.3359 1.71875 12.6172C1.71875 12.7266 1.75781 12.8672 1.85156 12.9688L3.17188 14.4219C3.27344 14.5312 3.4375 14.5859 3.5625 14.5859Z" fill="white"/>
</svg>
